<svg xmlns="http://www.w3.org/2000/svg" viewBox="0 0 1200 1200"><defs><style>.cls-1{fill:#fff;}.cls-2{fill:#4d4d4d;}</style></defs><title>no image_2</title><g id="Layer_2" data-name="Layer 2"><g id="Layer_1-2" data-name="Layer 1"><rect class="cls-1" width="1200" height="1200"/><path class="cls-2" d="M575.13,621.37a33.5,33.5,0,0,1,25.13-10.5q50.24-1.49,82.13-28.12t31.88-76.12q0-42.75-29.25-70.87t-72-28.12a109.58,109.58,0,0,0-46.12,10.13,124.67,124.67,0,0,0-38.62,27.38q-15,13.5-30,13.5a31.83,31.83,0,0,1-19.5-6.75q-16.51-12-16.5-27.75,0-13.5,11.25-24.75a179.09,179.09,0,0,1,61.88-45.75A185.81,185.81,0,0,1,613,337.12q48,0,87.38,21.75A165.13,165.13,0,0,1,763,419.25q23.24,38.64,23.25,87.38,0,45-19.87,79.88A156.38,156.38,0,0,1,712,642.75q-34.51,21.38-78,25.88c-.5,0-.63.13-.37.38s.87.13,1.88-.37v49.5a35.36,35.36,0,0,1-10.12,25.5,33.47,33.47,0,0,1-25.12,10.5q-15.75,0-25.87-10.5a32.82,32.82,0,0,1-9.37-25.5v-70.5Q565,631.87,575.13,621.37ZM570.25,880.5q-9.76-10.12-9.75-28.12V838.12q0-18,9.75-28.12T598,799.87h7.5q18,0,27.75,10.13T643,838.12v14.25q0,18-9.75,28.13T605.5,890.62H598Q580,890.62,570.25,880.5Z"/></g></g></svg>