<svg xmlns="http://www.w3.org/2000/svg" viewBox="0 0 1200 1200"><defs><style>.cls-1{fill:#fff;}.cls-2,.cls-3{fill:#4d4d4d;}.cls-2{stroke:#4d4d4d;stroke-miterlimit:10;}</style></defs><title>cube</title><g id="Layer_2" data-name="Layer 2"><g id="Layer_1-2" data-name="Layer 1"><rect class="cls-1" width="1200" height="1200"/><rect class="cls-2" x="856.64" y="283.77" width="20" height="750" rx="10" ry="10"/><rect class="cls-2" x="126.64" y="283.77" width="20" height="750" rx="10" ry="10"/><rect class="cls-2" x="491.64" y="-81.23" width="20" height="750" rx="10" ry="10" transform="translate(795.41 -207.87) rotate(90)"/><rect class="cls-2" x="491.64" y="648.77" width="20" height="750" rx="10" ry="10" transform="translate(1525.41 522.13) rotate(90)"/><circle class="cls-3" cx="137" cy="1023.5" r="28.25"/><circle class="cls-3" cx="867" cy="293.5" r="28.25"/><circle class="cls-3" cx="137" cy="293.5" r="28.25"/><circle class="cls-3" cx="867" cy="1023.5" r="28.25"/><rect class="cls-2" x="1052.64" y="166.77" width="20" height="750" rx="10" ry="10"/><rect class="cls-2" x="322.64" y="166.77" width="20" height="750" rx="10" ry="10"/><rect class="cls-2" x="687.64" y="-198.23" width="20" height="750" rx="10" ry="10" transform="translate(874.41 -520.87) rotate(90)"/><rect class="cls-2" x="687.64" y="531.77" width="20" height="750" rx="10" ry="10" transform="translate(1604.41 209.13) rotate(90)"/><circle class="cls-3" cx="333" cy="906.5" r="28.25"/><circle class="cls-3" cx="1063" cy="176.5" r="28.25"/><circle class="cls-3" cx="333" cy="176.5" r="28.25"/><circle class="cls-3" cx="1063" cy="906.5" r="28.25"/><rect class="cls-2" x="956.64" y="840.77" width="20" height="250" rx="10" ry="10" transform="translate(1319.7 -354.25) rotate(60)"/><rect class="cls-2" x="956.64" y="110.77" width="20" height="250" rx="10" ry="10" transform="translate(687.5 -719.25) rotate(60)"/><rect class="cls-2" x="226.64" y="110.77" width="20" height="250" rx="10" ry="10" transform="translate(322.5 -87.05) rotate(60)"/><rect class="cls-2" x="226.64" y="840.77" width="20" height="250" rx="10" ry="10" transform="translate(954.7 277.95) rotate(60)"/></g></g></svg>